<svg id="Capa_1" data-name="Capa 1" xmlns="http://www.w3.org/2000/svg" viewBox="0 0 74.39 43.47"><path d="M37.13,43.47a39.94,39.94,0,0,1-16.26-3.8,68.43,68.43,0,0,1-15.58-9.9,30.83,30.83,0,0,1-3.43-3.12,7.53,7.53,0,0,1,.67-10.58A77.32,77.32,0,0,1,15.79,6.38,49.77,49.77,0,0,1,29.84.8a34.78,34.78,0,0,1,17.77.79,55.27,55.27,0,0,1,14.28,6.8A74.63,74.63,0,0,1,71.78,16a7.57,7.57,0,0,1,0,11.46,76.44,76.44,0,0,1-9.25,7.17,57.11,57.11,0,0,1-12.63,6.48A37.22,37.22,0,0,1,37.13,43.47Zm0-40.56c-.63,0-1.26,0-1.89.09s-1.3.1-2,.18A44.09,44.09,0,0,0,17.64,8.73,75.18,75.18,0,0,0,4.75,18a4.67,4.67,0,0,0,0,7.35c1.66,1.42,3.32,2.83,5.06,4.15A57.37,57.37,0,0,0,26.7,38.76a32.2,32.2,0,0,0,16,1.27,45.6,45.6,0,0,0,14-5.24,74,74,0,0,0,13.22-9.57,4.63,4.63,0,0,0,0-7c-2.32-1.94-4.65-3.86-7.09-5.66A55.67,55.67,0,0,0,50.92,5.89,37,37,0,0,0,37.13,2.91Z" style="fill:#fff"/><path d="M49.1,21.77a11.92,11.92,0,1,1-11.86-12A11.92,11.92,0,0,1,49.1,21.77Z" style="fill:#fff"/></svg>