<svg id="Capa_1" data-name="Capa 1" xmlns="http://www.w3.org/2000/svg" viewBox="0 0 74.36 55.82"><path d="M65.08,1.69a2,2,0,0,1-.67,1.54Q59.72,7.91,55,12.6L30.21,37.42,12.44,55.19a1.8,1.8,0,0,1-2,.53,1.68,1.68,0,0,1-1.21-1.51,1.94,1.94,0,0,1,.65-1.61L18,44.55l27.39-27.4L61.8.72a1.94,1.94,0,0,1,2-.65A1.69,1.69,0,0,1,65,1.38,1.39,1.39,0,0,1,65.08,1.69Z" style="fill:#fff"/><path d="M18.75,41.56l-2.16,2.21c-1.32-.81-2.67-1.59-4-2.44a78.78,78.78,0,0,1-9.84-7.52A7.51,7.51,0,0,1,.25,26,7.3,7.3,0,0,1,2.57,22.2a81.29,81.29,0,0,1,8.8-6.88,60.35,60.35,0,0,1,10.9-6A38.56,38.56,0,0,1,37.39,6.18a38.57,38.57,0,0,1,14,2.88c-.75.75-1.46,1.48-2.2,2.17-.09.08-.36,0-.52,0A41.05,41.05,0,0,0,42,9.51a30.89,30.89,0,0,0-12.66.62A50.73,50.73,0,0,0,14.18,17,79.19,79.19,0,0,0,4.6,24.34a4.69,4.69,0,0,0,0,7.14A75.23,75.23,0,0,0,17.74,41l1,.54S18.76,41.57,18.75,41.56Z" style="fill:#fff"/><path d="M23.05,46.69c.69-.68,1.37-1.36,2.08-2a.61.61,0,0,1,.5-.07A40.37,40.37,0,0,0,33,46.41,30.41,30.41,0,0,0,43.58,46c6.71-1.4,12.66-4.48,18.26-8.31a76.54,76.54,0,0,0,7.91-6.23,4.65,4.65,0,0,0,0-7.11,72.22,72.22,0,0,0-13.92-9.93l-.35-.22c.7-.68,1.35-1.34,2-2a.69.69,0,0,1,.59.05c2.35,1.5,4.77,2.92,7,4.56s4.5,3.49,6.64,5.37a7.61,7.61,0,0,1-.14,11.5,80.23,80.23,0,0,1-13.25,9.61A48.08,48.08,0,0,1,43.1,49.13a33.29,33.29,0,0,1-14-.46c-2-.51-4-1.17-6.06-1.77Z" style="fill:#fff"/><path d="M42.83,17.46,26.71,33.57A11.88,11.88,0,0,1,42.83,17.46Z" style="fill:#fff"/><path d="M47.64,22.24A11.87,11.87,0,0,1,31.52,38.35Z" style="fill:#fff"/></svg>